<?xml version="1.0" encoding="UTF-8" standalone="no"?>
<!DOCTYPE svg PUBLIC "-//W3C//DTD SVG 1.1//EN" "http://www.w3.org/Graphics/SVG/1.1/DTD/svg11.dtd">
<svg width="100%" height="100%" viewBox="0 0 272 272" version="1.1" xmlns="http://www.w3.org/2000/svg" xmlns:xlink="http://www.w3.org/1999/xlink" xml:space="preserve" xmlns:serif="http://www.serif.com/" style="fill-rule:evenodd;clip-rule:evenodd;stroke-linejoin:round;stroke-miterlimit:2;">
    <g transform="matrix(1.0625,0,0,1.12039,1.77636e-15,1.77636e-15)">
        <path d="M256,56.535C256,25.332 229.287,0 196.385,0L59.615,0C26.713,0 0,25.332 0,56.535L0,186.239C0,217.441 26.713,242.773 59.615,242.773L196.385,242.773C229.287,242.773 256,217.441 256,186.239L256,56.535Z" style="fill:url(#_Linear1);"/>
    </g>
    <g transform="matrix(0.114149,0,0,0.114149,33.7225,33.7225)">
        <path d="M1420.04,616.439C1424.42,635.442 1421.68,653.166 1411.82,669.611C1401.95,686.056 1387.52,696.471 1368.51,700.856C1226.72,734.476 1115.99,755.672 1036.33,764.442C1037.79,879.921 1043.45,978.224 1053.32,1059.35C1063.19,1140.48 1072.87,1197.3 1082.37,1229.83C1091.88,1262.35 1106.86,1304.56 1127.32,1356.45L1137.19,1379.48C1144.5,1397.75 1144.13,1415.65 1136.09,1433.19C1128.05,1450.74 1114.9,1463.16 1096.63,1470.47C1090.05,1473.39 1081.64,1474.86 1071.41,1474.86C1039.25,1474.86 1017.33,1459.87 1005.63,1429.91L996.861,1407.98C957.394,1306.39 931.448,1211.74 919.023,1124.03L872.977,1124.03C860.552,1211.74 834.606,1306.39 795.139,1407.98L786.368,1429.91C774.674,1459.87 752.748,1474.86 720.589,1474.86C710.357,1474.86 701.952,1473.39 695.374,1470.47C677.102,1463.16 663.946,1450.74 655.907,1433.19C647.867,1415.65 647.502,1397.75 654.811,1379.48L664.677,1356.45C685.142,1304.56 700.125,1262.35 709.626,1229.83C719.128,1197.3 728.812,1140.48 738.679,1059.35C748.546,978.224 754.21,879.921 755.672,764.442C676.006,755.672 565.278,734.476 423.488,700.856C404.485,696.471 390.05,686.056 380.183,669.611C370.317,653.166 367.576,635.442 371.961,616.439C376.346,597.437 386.761,583.002 403.206,573.135C419.651,563.268 437.375,560.527 456.377,564.913C647.136,610.227 793.677,632.884 896,632.884C998.323,632.884 1144.86,610.227 1335.62,564.913C1354.62,560.527 1372.35,563.268 1388.79,573.135C1405.24,583.002 1415.65,597.437 1420.04,616.439ZM1036.33,457.474C1036.33,496.21 1022.62,529.282 995.217,556.69C967.809,584.098 934.736,597.802 896,597.802C857.264,597.802 824.191,584.098 796.783,556.69C769.376,529.282 755.672,496.21 755.672,457.474C755.672,418.737 769.376,385.665 796.783,358.257C824.191,330.849 857.264,317.145 896,317.145C934.736,317.145 967.809,330.849 995.217,358.257C1022.62,385.665 1036.33,418.737 1036.33,457.474ZM896,128C792,128 692.667,148.333 598,189C503.333,229.667 421.667,284.333 353,353C284.333,421.667 229.667,503.333 189,598C148.333,692.667 128,792 128,896C128,1000 148.333,1099.33 189,1194C229.667,1288.67 284.333,1370.33 353,1439C421.667,1507.67 503.333,1562.33 598,1603C692.667,1643.67 792,1664 896,1664C1000,1664 1099.33,1643.67 1194,1603C1288.67,1562.33 1370.33,1507.67 1439,1439C1507.67,1370.33 1562.33,1288.67 1603,1194C1643.67,1099.33 1664,1000 1664,896C1664,792 1643.67,692.667 1603,598C1562.33,503.333 1507.67,421.667 1439,353C1370.33,284.333 1288.67,229.667 1194,189C1099.33,148.333 1000,128 896,128ZM1792,896C1792,1017.33 1768.33,1133.33 1721,1244C1673.67,1354.67 1610,1450 1530,1530C1450,1610 1354.67,1673.67 1244,1721C1133.33,1768.33 1017.33,1792 896,1792C774.667,1792 658.667,1768.33 548,1721C437.333,1673.67 342,1610 262,1530C182,1450 118.333,1354.67 71,1244C23.667,1133.33 0,1017.33 0,896C0,774.667 23.667,658.667 71,548C118.333,437.333 182,342 262,262C342,182 437.333,118.333 548,71C658.667,23.667 774.667,0 896,0C1017.33,0 1133.33,23.667 1244,71C1354.67,118.333 1450,182 1530,262C1610,342 1673.67,437.333 1721,548C1768.33,658.667 1792,774.667 1792,896Z" style="fill:white;fill-rule:nonzero;"/>
    </g>
    <defs>
        <linearGradient id="_Linear1" x1="0" y1="0" x2="1" y2="0" gradientUnits="userSpaceOnUse" gradientTransform="matrix(229.547,205.056,-216.227,217.687,13.2267,18.0713)"><stop offset="0" style="stop-color:rgb(25,31,204);stop-opacity:1"/><stop offset="0.43" style="stop-color:rgb(48,54,214);stop-opacity:1"/><stop offset="1" style="stop-color:rgb(100,105,236);stop-opacity:1"/></linearGradient>
    </defs>
</svg>
